<svg width="22" height="22" viewBox="0 0 22 22" fill="none" xmlns="http://www.w3.org/2000/svg">
<path d="M4.99977 13.7502L0.916016 16.9585V2.75016C0.916016 2.50705 1.01259 2.27389 1.1845 2.10198C1.35641 1.93007 1.58957 1.8335 1.83268 1.8335H15.5827C15.8258 1.8335 16.059 1.93007 16.2309 2.10198C16.4028 2.27389 16.4993 2.50705 16.4993 2.75016V13.7502H4.99977ZM4.36543 11.9168H14.666V3.66683H2.74935V13.1864L4.36543 11.9168ZM7.33268 15.5835H16.7166L18.3327 16.8531V7.3335H19.2493C19.4925 7.3335 19.7256 7.43007 19.8975 7.60198C20.0694 7.77389 20.166 8.00705 20.166 8.25016V20.6252L16.0823 17.4168H8.24935C8.00623 17.4168 7.77308 17.3203 7.60117 17.1483C7.42926 16.9764 7.33268 16.7433 7.33268 16.5002V15.5835Z" fill="#637381"/>
</svg>
