<svg width="22" height="22" viewBox="0 0 22 22" fill="none" xmlns="http://www.w3.org/2000/svg">
<path d="M11.0002 20.1667C5.93741 20.1667 1.8335 16.0628 1.8335 11C1.8335 5.93726 5.93741 1.83334 11.0002 1.83334C16.0629 1.83334 20.1668 5.93726 20.1668 11C20.1668 16.0628 16.0629 20.1667 11.0002 20.1667ZM8.901 18.0281C7.99663 16.1098 7.47271 14.0344 7.35825 11.9167H3.72366C3.90203 13.3273 4.48626 14.6558 5.40535 15.7407C6.32444 16.8257 7.53884 17.6203 8.901 18.0281ZM9.19433 11.9167C9.33275 14.1524 9.97166 16.2525 11.0002 18.106C12.0565 16.2035 12.6735 14.0887 12.806 11.9167H9.19433ZM18.2767 11.9167H14.6421C14.5276 14.0344 14.0037 16.1098 13.0993 18.0281C14.4615 17.6203 15.6759 16.8257 16.595 15.7407C17.5141 14.6558 18.0983 13.3273 18.2767 11.9167ZM3.72366 10.0833H7.35825C7.47271 7.96565 7.99663 5.89022 8.901 3.97193C7.53884 4.37973 6.32444 5.17437 5.40535 6.25928C4.48626 7.34419 3.90203 8.67269 3.72366 10.0833ZM9.19525 10.0833H12.8051C12.6729 7.91139 12.0561 5.79658 11.0002 3.89401C9.94387 5.7965 9.32684 7.91132 9.19433 10.0833H9.19525ZM13.0993 3.97193C14.0037 5.89022 14.5276 7.96565 14.6421 10.0833H18.2767C18.0983 8.67269 17.5141 7.34419 16.595 6.25928C15.6759 5.17437 14.4615 4.37973 13.0993 3.97193Z" fill="#7C3FFF"/>
</svg>
