<svg width="22" height="22" viewBox="0 0 22 22" fill="none" xmlns="http://www.w3.org/2000/svg">
<path d="M13.75 3.66683H4.58333V18.3335H17.4167V7.3335H13.75V3.66683ZM2.75 2.74283C2.75 2.2405 3.15975 1.8335 3.66575 1.8335H14.6667L19.25 6.41683V19.2437C19.2508 19.3641 19.228 19.4835 19.1827 19.595C19.1374 19.7066 19.0706 19.8081 18.9861 19.8938C18.9015 19.9795 18.801 20.0478 18.6901 20.0946C18.5792 20.1414 18.4601 20.166 18.3398 20.1668H3.66025C3.41951 20.1652 3.1891 20.0688 3.01878 19.8987C2.84847 19.7285 2.75192 19.4982 2.75 19.2575V2.74283ZM12.4016 13.2423C11.6328 13.6915 10.7269 13.8458 9.85276 13.6763C8.97864 13.5069 8.19597 13.0253 7.65071 12.3214C7.10544 11.6175 6.83479 10.7393 6.88923 9.85058C6.94367 8.96185 7.31948 8.12326 7.94658 7.49116C8.57766 6.8602 9.41718 6.48105 10.3078 6.42476C11.1984 6.36847 12.079 6.63892 12.7845 7.18541C13.49 7.7319 13.972 8.51692 14.1401 9.39334C14.3082 10.2698 14.1509 11.1774 13.6978 11.9462L15.7236 13.972L14.4274 15.2691L12.4016 13.2432V13.2423ZM11.8351 11.3797C12.0102 11.2105 12.1499 11.0082 12.2459 10.7846C12.342 10.5609 12.3926 10.3203 12.3947 10.0769C12.3968 9.83347 12.3504 9.59206 12.2583 9.36675C12.1661 9.14144 12.0299 8.93674 11.8578 8.7646C11.6857 8.59247 11.481 8.45634 11.2557 8.36416C11.0304 8.27197 10.7889 8.22559 10.5455 8.2277C10.3021 8.22982 10.0615 8.28039 9.83784 8.37648C9.61417 8.47256 9.41187 8.61223 9.24275 8.78733C8.90879 9.1331 8.724 9.5962 8.72818 10.0769C8.73236 10.5576 8.92517 11.0174 9.26508 11.3573C9.605 11.6972 10.0648 11.8901 10.5455 11.8942C11.0262 11.8984 11.4893 11.7136 11.8351 11.3797Z" fill="#7C3FFF"/>
</svg>
