<svg width="22" height="22" viewBox="0 0 22 22" fill="none" xmlns="http://www.w3.org/2000/svg">
<path d="M6.68359 19.0887L1.83351 20.1667L2.91151 15.3166C2.20158 13.9887 1.83124 12.5058 1.83351 11C1.83351 5.93726 5.93742 1.83334 11.0002 1.83334C16.0629 1.83334 20.1668 5.93726 20.1668 11C20.1668 16.0628 16.0629 20.1667 11.0002 20.1667C9.49441 20.1689 8.01149 19.7986 6.68359 19.0887ZM6.94942 17.1518L7.54801 17.4726C8.61001 18.0401 9.79603 18.3359 11.0002 18.3333C12.4506 18.3333 13.8684 17.9032 15.0744 17.0975C16.2803 16.2917 17.2202 15.1463 17.7753 13.8064C18.3303 12.4664 18.4756 10.9919 18.1926 9.56935C17.9096 8.14682 17.2112 6.84015 16.1856 5.81456C15.16 4.78898 13.8534 4.09054 12.4308 3.80758C11.0083 3.52463 9.53382 3.66985 8.19383 4.22489C6.85384 4.77994 5.70853 5.71987 4.90273 6.92583C4.09693 8.13179 3.66684 9.54961 3.66684 11C3.66684 12.2228 3.96476 13.3998 4.52851 14.4522L4.84842 15.0508L4.24801 17.7522L6.94942 17.1518Z" fill="#637381"/>
</svg>
