<svg width="22" height="22" viewBox="0 0 22 22" fill="none" xmlns="http://www.w3.org/2000/svg">
<path d="M1.83398 20.1665C1.83398 18.2216 2.6066 16.3563 3.98187 14.9811C5.35713 13.6058 7.2224 12.8332 9.16732 12.8332C11.1122 12.8332 12.9775 13.6058 14.3528 14.9811C15.728 16.3563 16.5007 18.2216 16.5007 20.1665H14.6673C14.6673 18.7078 14.0879 17.3089 13.0564 16.2774C12.025 15.246 10.626 14.6665 9.16732 14.6665C7.70863 14.6665 6.30968 15.246 5.27823 16.2774C4.24678 17.3089 3.66732 18.7078 3.66732 20.1665H1.83398ZM9.16732 11.9165C6.12857 11.9165 3.66732 9.45525 3.66732 6.4165C3.66732 3.37775 6.12857 0.916504 9.16732 0.916504C12.2061 0.916504 14.6673 3.37775 14.6673 6.4165C14.6673 9.45525 12.2061 11.9165 9.16732 11.9165ZM9.16732 10.0832C11.1932 10.0832 12.834 8.44234 12.834 6.4165C12.834 4.39067 11.1932 2.74984 9.16732 2.74984C7.14148 2.74984 5.50065 4.39067 5.50065 6.4165C5.50065 8.44234 7.14148 10.0832 9.16732 10.0832ZM16.761 13.4776C18.0492 14.0578 19.1425 14.9976 19.9094 16.1842C20.6762 17.3708 21.0841 18.7537 21.084 20.1665H19.2507C19.2509 19.1068 18.945 18.0696 18.3698 17.1796C17.7946 16.2896 16.9746 15.5847 16.0084 15.1496L16.7601 13.4776H16.761ZM16.1303 3.12842C17.0539 3.50911 17.8435 4.15558 18.3991 4.9858C18.9546 5.81602 19.251 6.79256 19.2507 7.7915C19.251 9.04947 18.781 10.2621 17.933 11.1913C17.0849 12.1204 15.9201 12.6989 14.6673 12.813V10.9678C15.3465 10.8705 15.9766 10.558 16.4652 10.0763C16.9537 9.59449 17.275 8.9688 17.3817 8.29103C17.4885 7.61326 17.3751 6.91911 17.0583 6.31049C16.7415 5.70188 16.238 5.21085 15.6216 4.9095L16.1303 3.12842Z" fill="#637381"/>
</svg>
