<svg width="22" height="22" viewBox="0 0 22 22" fill="none" xmlns="http://www.w3.org/2000/svg">
<path d="M15.584 2.74984H19.2507C19.4938 2.74984 19.7269 2.84641 19.8988 3.01832C20.0707 3.19023 20.1673 3.42339 20.1673 3.6665V18.3332C20.1673 18.5763 20.0707 18.8094 19.8988 18.9814C19.7269 19.1533 19.4938 19.2498 19.2507 19.2498H2.75065C2.50754 19.2498 2.27438 19.1533 2.10247 18.9814C1.93056 18.8094 1.83398 18.5763 1.83398 18.3332V3.6665C1.83398 3.42339 1.93056 3.19023 2.10247 3.01832C2.27438 2.84641 2.50754 2.74984 2.75065 2.74984H6.41732V0.916504H8.25065V2.74984H13.7507V0.916504H15.584V2.74984ZM18.334 8.24984V4.58317H15.584V6.4165H13.7507V4.58317H8.25065V6.4165H6.41732V4.58317H3.66732V8.24984H18.334ZM18.334 10.0832H3.66732V17.4165H18.334V10.0832ZM5.50065 11.9165H10.084V15.5832H5.50065V11.9165Z" fill="#637381"/>
</svg>
