<svg width="22" height="22" viewBox="0 0 22 22" fill="none" xmlns="http://www.w3.org/2000/svg">
<path d="M11.0002 20.1666C5.93741 20.1666 1.8335 16.0627 1.8335 11C1.8335 5.93723 5.93741 1.83331 11.0002 1.83331C16.0629 1.83331 20.1668 5.93723 20.1668 11C20.1668 16.0627 16.0629 20.1666 11.0002 20.1666ZM11.0002 18.3333C12.9451 18.3333 14.8103 17.5607 16.1856 16.1854C17.5609 14.8102 18.3335 12.9449 18.3335 11C18.3335 9.05506 17.5609 7.1898 16.1856 5.81453C14.8103 4.43926 12.9451 3.66665 11.0002 3.66665C9.05524 3.66665 7.18998 4.43926 5.81471 5.81453C4.43945 7.1898 3.66683 9.05506 3.66683 11C3.66683 12.9449 4.43945 14.8102 5.81471 16.1854C7.18998 17.5607 9.05524 18.3333 11.0002 18.3333ZM14.2085 7.79165L12.3752 12.375L7.79183 14.2083L9.62516 9.62498L14.2085 7.79165Z" fill="#637381"/>
</svg>
