<svg width="22" height="22" viewBox="0 0 22 22" fill="none" xmlns="http://www.w3.org/2000/svg">
<path d="M17.4167 2.75H4.58333C4.0971 2.75 3.63079 2.94315 3.28697 3.28697C2.94315 3.63079 2.75 4.0971 2.75 4.58333V17.4167C2.75 17.9029 2.94315 18.3692 3.28697 18.713C3.63079 19.0568 4.0971 19.25 4.58333 19.25H17.4167C17.9029 19.25 18.3692 19.0568 18.713 18.713C19.0568 18.3692 19.25 17.9029 19.25 17.4167V4.58333C19.25 4.0971 19.0568 3.63079 18.713 3.28697C18.3692 2.94315 17.9029 2.75 17.4167 2.75ZM17.4167 4.58333V17.4167H4.58333V4.58333H17.4167ZM9.16667 15.5833L5.5 11.9167L6.7925 10.615L9.16667 12.9892L15.2075 6.94833L16.5 8.25" fill="#637381"/>
</svg>
