<svg width="22" height="22" viewBox="0 0 22 22" fill="none" xmlns="http://www.w3.org/2000/svg">
<path d="M9.99169 1.92499L19.0658 3.22207L20.3619 12.2971L11.9359 20.7231C11.764 20.8949 11.5309 20.9915 11.2879 20.9915C11.0448 20.9915 10.8117 20.8949 10.6398 20.7231L1.56477 11.6481C1.39293 11.4762 1.29639 11.2431 1.29639 11C1.29639 10.7569 1.39293 10.5238 1.56477 10.3519L9.99169 1.92499ZM10.6398 3.87015L3.50902 11L11.2879 18.7779L18.4177 11.6481L17.446 4.84182L10.6398 3.87015ZM12.5831 9.70382C12.2392 9.35981 12.0461 8.89329 12.0462 8.40687C12.0462 8.16602 12.0937 7.92754 12.1859 7.70504C12.2781 7.48255 12.4132 7.28039 12.5836 7.11011C12.7539 6.93984 12.9561 6.80478 13.1786 6.71265C13.4012 6.62052 13.6397 6.57313 13.8805 6.57317C14.3669 6.57325 14.8334 6.76656 15.1773 7.11057C15.5212 7.45458 15.7143 7.92111 15.7142 8.40752C15.7141 8.89394 15.5208 9.36039 15.1768 9.70428C14.8328 10.0482 14.3663 10.2413 13.8799 10.2412C13.3935 10.2411 12.927 10.0478 12.5831 9.70382Z" fill="#637381"/>
</svg>
